<svg preserveAspectRatio="none" width="100%" height="100%" overflow="visible" style="display: block;" viewBox="0 0 24 24" fill="none" xmlns="http://www.w3.org/2000/svg">
<g id="qlementine-icons:facebook-24">
<path id="Vector" fill-rule="evenodd" clip-rule="evenodd" d="M1 5.8C1 4.12 1 3.28 1.327 2.64C1.61564 2.07687 2.07387 1.61864 2.637 1.33C3.279 1.003 4.117 1.003 5.797 1.003H18.197C19.877 1.003 20.717 1.003 21.357 1.33C21.9201 1.61864 22.3784 2.07687 22.667 2.64C22.994 3.282 22.994 4.12 22.994 5.8V18.2C22.994 19.88 22.994 20.72 22.667 21.36C22.3795 21.9239 21.9209 22.3825 21.357 22.67C20.715 22.997 19.877 22.997 18.197 22.997H5.797C4.117 22.997 3.277 22.997 2.637 22.67C2.07306 22.3825 1.61452 21.9239 1.327 21.36C1 20.718 1 19.88 1 18.2V5.8ZM5.8 2H18.2C19.057 2 19.64 2 20.09 2.038C20.528 2.073 20.753 2.138 20.909 2.218C21.285 2.41 21.591 2.716 21.783 3.092C21.863 3.248 21.928 3.472 21.963 3.911C22 4.361 22.001 4.941 22.001 5.801V18.201C22.001 19.058 22 19.641 21.963 20.091C21.927 20.529 21.862 20.754 21.783 20.91C21.5913 21.2863 21.2853 21.5923 20.909 21.784C20.753 21.864 20.528 21.929 20.09 21.964C19.64 22 19.06 22.001 18.2 22.001H15.42V13.711H17.75L18.116 11.151H15.426V10.051C15.426 9.86433 15.4383 9.69533 15.463 9.544C15.57 8.901 15.922 8.584 16.663 8.584H18.143V6.134L18.127 6.131C17.861 6.095 17.314 6.021 16.297 6.021C14.127 6.021 12.857 7.161 12.857 9.771V11.151H10.297V13.711H12.857V22.001H5.807C4.95 22.001 4.367 22.001 3.917 21.963C3.479 21.928 3.254 21.863 3.098 21.783C2.72169 21.5913 2.41574 21.2853 2.224 20.909C2.144 20.753 2.079 20.529 2.044 20.09C2.007 19.64 2.007 19.06 2.007 18.2V5.8C2.007 4.943 2.007 4.36 2.044 3.91C2.08 3.472 2.145 3.247 2.224 3.091C2.416 2.715 2.722 2.409 3.098 2.217C3.254 2.137 3.479 2.072 3.918 2.037C4.368 2.001 4.948 2 5.808 2H5.8Z" fill="var(--fill-0, #525252)"/>
</g>
</svg>
