<svg preserveAspectRatio="none" width="100%" height="100%" overflow="visible" style="display: block;" viewBox="0 0 24 24" fill="none" xmlns="http://www.w3.org/2000/svg">
<g id="circum:instagram">
<path id="Vector" d="M19.9229 23H4.07712C3.26102 23 2.47835 22.6758 1.90128 22.0987C1.32422 21.5217 1.00002 20.739 1.00002 19.9229V4.07712C1.00002 3.26102 1.32422 2.47835 1.90128 1.90128C2.47835 1.32422 3.26102 1.00002 4.07712 1.00002H19.9229C20.739 1.00002 21.5217 1.32422 22.0987 1.90128C22.6758 2.47835 23 3.26102 23 4.07712V19.9229C23 20.739 22.6758 21.5217 22.0987 22.0987C21.5217 22.6758 20.739 23 19.9229 23ZM4.07712 2.23086C3.58746 2.23086 3.11786 2.42538 2.77162 2.77162C2.42538 3.11786 2.23086 3.58746 2.23086 4.07712V19.9229C2.23086 20.4126 2.42538 20.8822 2.77162 21.2284C3.11786 21.5746 3.58746 21.7692 4.07712 21.7692H19.9229C20.4126 21.7692 20.8822 21.5746 21.2284 21.2284C21.5746 20.8822 21.7692 20.4126 21.7692 19.9229V4.07712C21.7692 3.58746 21.5746 3.11786 21.2284 2.77162C20.8822 2.42538 20.4126 2.23086 19.9229 2.23086H4.07712Z" fill="var(--fill-0, #525252)"/>
<path id="Vector_2" d="M12 17.6546C10.8816 17.6533 9.78868 17.3206 8.85938 16.6983C7.93009 16.0761 7.20615 15.1923 6.77906 14.1587C6.35197 13.125 6.24092 11.988 6.45994 10.8913C6.67896 9.79455 7.21822 8.78738 8.00955 7.99708C8.80088 7.20679 9.80876 6.66884 10.9058 6.45125C12.0028 6.23366 13.1397 6.3462 14.1727 6.77463C15.2058 7.20307 16.0887 7.92817 16.7097 8.85827C17.3307 9.78837 17.6621 10.8817 17.6618 12.0001C17.6599 13.5004 17.0625 14.9387 16.0009 15.9989C14.9393 17.0591 13.5003 17.6546 12 17.6546ZM12 7.56909C11.1253 7.57031 10.2707 7.8307 9.54397 8.31738C8.81725 8.80405 8.25106 9.49518 7.91691 10.3035C7.58277 11.1118 7.49566 12.0009 7.66659 12.8587C7.83752 13.7165 8.25882 14.5043 8.87728 15.1228C9.49574 15.7412 10.2836 16.1625 11.1414 16.3335C11.9991 16.5044 12.8883 16.4173 13.6966 16.0832C14.5049 15.749 15.196 15.1828 15.6827 14.4561C16.1694 13.7294 16.4298 12.8747 16.431 12.0001C16.431 10.8249 15.9641 9.69788 15.1332 8.8669C14.3022 8.03593 13.1751 7.56909 12 7.56909Z" fill="var(--fill-0, #525252)"/>
<path id="Vector_3" d="M18.4004 6.95974C19.1312 6.95974 19.7236 6.36735 19.7236 5.63659C19.7236 4.90584 19.1312 4.31344 18.4004 4.31344C17.6697 4.31344 17.0773 4.90584 17.0773 5.63659C17.0773 6.36735 17.6697 6.95974 18.4004 6.95974Z" fill="var(--fill-0, #525252)"/>
</g>
</svg>
