<svg preserveAspectRatio="none" width="100%" height="100%" overflow="visible" style="display: block;" viewBox="0 0 24 24" fill="none" xmlns="http://www.w3.org/2000/svg">
<g id="ph:linkedin-logo-light">
<path id="Vector" d="M21.4902 1H2.5098C2.10938 1 1.72535 1.15907 1.44221 1.44221C1.15907 1.72535 1 2.10938 1 2.5098V21.4902C1 21.8906 1.15907 22.2746 1.44221 22.5578C1.72535 22.8409 2.10938 23 2.5098 23H21.4902C21.8906 23 22.2746 22.8409 22.5578 22.5578C22.8409 22.2746 23 21.8906 23 21.4902V2.5098C23 2.10938 22.8409 1.72535 22.5578 1.44221C22.2746 1.15907 21.8906 1 21.4902 1ZM21.7059 21.4902C21.7059 21.5474 21.6832 21.6023 21.6427 21.6427C21.6023 21.6832 21.5474 21.7059 21.4902 21.7059H2.5098C2.4526 21.7059 2.39774 21.6832 2.35729 21.6427C2.31684 21.6023 2.29412 21.5474 2.29412 21.4902V2.5098C2.29412 2.4526 2.31684 2.39774 2.35729 2.35729C2.39774 2.31684 2.4526 2.29412 2.5098 2.29412H21.4902C21.5474 2.29412 21.6023 2.31684 21.6427 2.35729C21.6832 2.39774 21.7059 2.4526 21.7059 2.5098V21.4902ZM8.33333 10.2745V17.1765C8.33333 17.3481 8.26516 17.5127 8.14381 17.634C8.02247 17.7554 7.85789 17.8235 7.68627 17.8235C7.51466 17.8235 7.35008 17.7554 7.22874 17.634C7.10739 17.5127 7.03922 17.3481 7.03922 17.1765V10.2745C7.03922 10.1029 7.10739 9.93832 7.22874 9.81697C7.35008 9.69562 7.51466 9.62745 7.68627 9.62745C7.85789 9.62745 8.02247 9.69562 8.14381 9.81697C8.26516 9.93832 8.33333 10.1029 8.33333 10.2745ZM17.8235 13.2941V17.1765C17.8235 17.3481 17.7554 17.5127 17.634 17.634C17.5127 17.7554 17.3481 17.8235 17.1765 17.8235C17.0049 17.8235 16.8403 17.7554 16.7189 17.634C16.5976 17.5127 16.5294 17.3481 16.5294 17.1765V13.2941C16.5294 12.6649 16.2794 12.0614 15.8345 11.6165C15.3896 11.1715 14.7861 10.9216 14.1569 10.9216C13.5276 10.9216 12.9242 11.1715 12.4792 11.6165C12.0343 12.0614 11.7843 12.6649 11.7843 13.2941V17.1765C11.7843 17.3481 11.7161 17.5127 11.5948 17.634C11.4734 17.7554 11.3089 17.8235 11.1373 17.8235C10.9656 17.8235 10.8011 17.7554 10.6797 17.634C10.5584 17.5127 10.4902 17.3481 10.4902 17.1765V10.2745C10.4902 10.1029 10.5584 9.93832 10.6797 9.81697C10.8011 9.69562 10.9656 9.62745 11.1373 9.62745C11.3089 9.62745 11.4734 9.69562 11.5948 9.81697C11.7161 9.93832 11.7843 10.1029 11.7843 10.2745V10.5021C12.3176 10.0495 12.9691 9.7589 13.6622 9.66453C14.3552 9.57017 15.0607 9.67598 15.6956 9.96948C16.3304 10.263 16.8681 10.7319 17.2451 11.321C17.6222 11.9101 17.8229 12.5947 17.8235 13.2941ZM8.76471 7.2549C8.76471 7.4682 8.70146 7.6767 8.58296 7.85405C8.46446 8.03139 8.29603 8.16962 8.09897 8.25124C7.90191 8.33287 7.68508 8.35422 7.47588 8.31261C7.26669 8.271 7.07453 8.16829 6.92371 8.01747C6.77289 7.86665 6.67018 7.67449 6.62856 7.46529C6.58695 7.2561 6.60831 7.03926 6.68993 6.8422C6.77156 6.64515 6.90978 6.47672 7.08713 6.35822C7.26448 6.23972 7.47298 6.17647 7.68627 6.17647C7.97229 6.17647 8.2466 6.29009 8.44884 6.49234C8.65109 6.69458 8.76471 6.96888 8.76471 7.2549Z" fill="var(--fill-0, #525252)"/>
</g>
</svg>
