<svg preserveAspectRatio="none" width="100%" height="100%" overflow="visible" style="display: block;" viewBox="0 0 21 21" fill="none" xmlns="http://www.w3.org/2000/svg">
<g id="link">
<path id="Vector" d="M8.75017 11.3749C9.12594 11.8772 9.60536 12.2929 10.1559 12.5937C10.7064 12.8945 11.3152 13.0734 11.941 13.1182C12.5667 13.163 13.1948 13.0727 13.7826 12.8534C14.3704 12.6342 14.9041 12.2911 15.3477 11.8474L17.9727 9.22238C18.7696 8.39725 19.2106 7.29212 19.2006 6.145C19.1907 4.99789 18.7305 3.90059 17.9194 3.08943C17.1082 2.27827 16.0109 1.81815 14.8638 1.80819C13.7167 1.79822 12.6116 2.23919 11.7864 3.03613L10.2814 4.53238" stroke="var(--stroke-0, #222831)" stroke-width="1.5" stroke-linecap="round" stroke-linejoin="round"/>
<path id="Vector_2" d="M12.2502 9.62511C11.8744 9.12275 11.395 8.70708 10.8444 8.40629C10.2939 8.1055 9.6851 7.92663 9.05935 7.88182C8.4336 7.837 7.80554 7.92729 7.21775 8.14655C6.62996 8.36582 6.0962 8.70893 5.65267 9.15261L3.02767 11.7776C2.23073 12.6027 1.78976 13.7079 1.79973 14.855C1.80969 16.0021 2.26981 17.0994 3.08097 17.9106C3.89213 18.7217 4.98943 19.1818 6.13654 19.1918C7.28365 19.2018 8.38879 18.7608 9.21392 17.9639L10.7102 16.4676" stroke="var(--stroke-0, #222831)" stroke-width="1.5" stroke-linecap="round" stroke-linejoin="round"/>
</g>
</svg>
