<svg preserveAspectRatio="none" width="100%" height="100%" overflow="visible" style="display: block;" viewBox="0 0 283.441 39" fill="none" xmlns="http://www.w3.org/2000/svg">
<g id="Logo/black" clip-path="url(#clip0_0_14)">
<path id="Subtract" d="M48.0421 11.2786C50.1861 11.2786 52.1091 11.6697 53.8107 12.4524C55.5121 13.2351 56.9585 14.2903 58.1495 15.6174C59.3406 16.9106 60.2598 18.4249 60.9064 20.1604C61.587 21.896 61.9436 23.6998 61.9777 25.5715H40.0782C40.1123 26.6265 40.3507 27.6136 40.7931 28.5325C41.2355 29.4513 41.8148 30.2513 42.5294 30.9319C43.244 31.6123 44.0777 32.1564 45.0304 32.5647C45.9833 32.939 46.9871 33.1262 48.0421 33.1262C49.8117 33.1262 51.3259 32.7006 52.5851 31.8499C53.8441 30.9651 54.7634 29.7916 55.3419 28.3284H61.8243C61.2458 30.268 60.4803 31.9184 59.5275 33.2795C58.5746 34.6408 57.486 35.7471 56.2609 36.5979C55.0357 37.4487 53.7255 38.0614 52.3302 38.4358C50.9349 38.8442 49.5054 39.0481 48.0421 39.0481C46.1024 39.0481 44.2817 38.6905 42.5802 37.9758C40.9127 37.2271 39.4487 36.24 38.1896 35.0149C36.9306 33.7558 35.9265 32.2926 35.1779 30.6252C34.4632 28.9238 34.1066 27.103 34.1066 25.1633C34.1066 23.2236 34.4632 21.4197 35.1779 19.7522C35.9265 18.0508 36.9306 16.5876 38.1896 15.3626C39.4487 14.1034 40.9127 13.1163 42.5802 12.4016C44.2818 11.6529 46.1023 11.2786 48.0421 11.2786ZM126.009 11.2786C127.949 11.2786 129.753 11.653 131.42 12.4016C131.719 12.5272 132.011 12.6615 132.295 12.804L127.722 17.3977C127.171 17.2673 126.6 17.1995 126.009 17.1995C124.92 17.1995 123.882 17.4211 122.895 17.8635C121.942 18.2719 121.108 18.8335 120.394 19.5481C119.679 20.2627 119.1 21.113 118.657 22.0999C118.249 23.0527 118.045 24.0743 118.045 25.1633C118.045 26.2521 118.249 27.2899 118.657 28.2766C119.1 29.2295 119.679 30.0639 120.394 30.7786C121.108 31.4931 121.942 32.0716 122.895 32.5139C123.882 32.9223 124.92 33.1262 126.009 33.1262C127.098 33.1262 128.119 32.9223 129.071 32.5139C130.058 32.0715 130.909 31.4932 131.624 30.7786C132.339 30.0639 132.9 29.2295 133.309 28.2766C133.751 27.2899 133.972 26.2521 133.972 25.1633C133.972 24.0743 133.751 23.0527 133.309 22.0999C132.935 21.1962 132.431 20.4081 131.8 19.7327L135.981 15.5334C137.158 16.7232 138.089 18.1288 138.771 19.7522C139.519 21.4197 139.894 23.2236 139.894 25.1633C139.894 27.103 139.519 28.9237 138.771 30.6252C138.056 32.2927 137.069 33.7558 135.81 35.0149C134.585 36.2399 133.121 37.2272 131.42 37.9758C129.753 38.6905 127.949 39.0481 126.009 39.0481C124.069 39.0481 122.248 38.6904 120.547 37.9758C118.879 37.2271 117.416 36.24 116.156 35.0149C114.897 33.7558 113.893 32.2927 113.145 30.6252C112.43 28.9237 112.072 27.1031 112.072 25.1633C112.072 23.2236 112.43 21.4197 113.145 19.7522C113.893 18.0508 114.897 16.5876 116.156 15.3626C117.416 14.1034 118.879 13.1163 120.547 12.4016C122.248 11.653 124.069 11.2786 126.009 11.2786ZM158.411 11.2786C159.67 11.2786 160.93 11.4481 162.189 11.7883C163.482 12.0946 164.691 12.6059 165.814 13.3206C166.971 14.0352 168.026 14.9535 168.979 16.0764C169.932 17.1654 170.73 18.4934 171.377 20.0588H164.691C163.942 19.0379 163.023 18.3059 161.934 17.8635C160.845 17.4211 159.67 17.1995 158.411 17.1995C157.322 17.1995 156.285 17.4212 155.298 17.8635C154.345 18.2719 153.511 18.8334 152.796 19.5481C152.082 20.2626 151.503 21.1132 151.061 22.0999C150.652 23.0527 150.448 24.0743 150.448 25.1633C150.448 26.2521 150.652 27.2899 151.061 28.2766C151.503 29.2295 152.081 30.0639 152.796 30.7786C153.511 31.4932 154.345 32.0715 155.298 32.5139C156.285 32.9222 157.322 33.1262 158.411 33.1262C159.738 33.1262 160.947 32.8878 162.036 32.4114C163.125 31.9009 164.01 31.1698 164.691 30.217H171.326C170.68 31.7484 169.88 33.0755 168.927 34.1985C168.008 35.3215 166.987 36.2407 165.864 36.9553C164.741 37.6699 163.55 38.1971 162.291 38.5374C161.032 38.8777 159.738 39.0481 158.411 39.0481C156.472 39.0481 154.651 38.6905 152.949 37.9758C151.282 37.2272 149.819 36.24 148.56 35.0149C147.301 33.7558 146.297 32.2927 145.548 30.6252C144.833 28.9237 144.476 27.1031 144.476 25.1633C144.476 23.2235 144.833 21.4197 145.548 19.7522C146.297 18.0507 147.301 16.5876 148.56 15.3626C149.819 14.1034 151.282 13.1163 152.949 12.4016C154.651 11.653 156.472 11.2786 158.411 11.2786ZM208.212 11.2786C210.152 11.2786 211.956 11.6529 213.623 12.4016C215.325 13.1163 216.789 14.1034 218.014 15.3626C219.273 16.5876 220.259 18.0509 220.974 19.7522C221.722 21.4197 222.097 23.2235 222.097 25.1633V37.9758H216.176V36.5471C213.862 38.2146 211.207 39.0481 208.212 39.0481C206.102 39.0481 204.18 38.6904 202.444 37.9758C200.743 37.2612 199.279 36.2741 198.054 35.0149C196.863 33.7558 195.927 32.2927 195.246 30.6252C194.6 28.9237 194.277 27.103 194.276 25.1633C194.276 23.2235 194.634 21.4197 195.349 19.7522C196.097 18.0507 197.101 16.5876 198.36 15.3626C199.62 14.1035 201.083 13.1163 202.75 12.4016C204.452 11.653 206.272 11.2786 208.212 11.2786ZM12.4562 2.24341C14.9403 2.24345 17.2547 2.73603 19.3986 3.7229C21.5765 4.70981 23.4651 6.0378 25.0646 7.70532C26.664 9.37281 27.9231 11.3295 28.8419 13.5754C29.7948 15.7874 30.2716 18.1185 30.2716 20.5686C30.2716 23.0189 29.7948 25.3162 28.8419 27.4602C27.9231 29.57 26.6639 31.4075 25.0646 32.9729C23.4652 34.5383 21.5764 35.7639 19.3986 36.6487C17.2547 37.5335 14.9403 37.9758 12.4562 37.9758H0.000119851V2.24341H12.4562ZM95.379 11.2786C96.9784 11.2786 98.476 11.585 99.8712 12.1975C101.301 12.8101 102.526 13.6435 103.547 14.6985C104.602 15.7535 105.435 16.9957 106.048 18.4251C106.661 19.8203 106.967 21.3178 106.967 22.9172V37.9758H100.943V22.9172C100.943 22.1685 100.791 21.4533 100.484 20.7727C100.212 20.0922 99.8201 19.497 99.3097 18.9866C98.7993 18.4762 98.2041 18.0672 97.5236 17.761C96.8429 17.4547 96.1277 17.302 95.379 17.302C94.5966 17.3021 93.8651 17.4549 93.1847 17.761C92.5382 18.0672 91.9598 18.4762 91.4493 18.9866C90.939 19.497 90.53 20.0922 90.2238 20.7727C89.9515 21.4533 89.8155 22.1685 89.8155 22.9172V37.9758H83.7921V22.9172C83.7921 22.1345 83.6384 21.4026 83.3322 20.7219C83.0599 20.0415 82.6686 19.4462 82.1583 18.9358C81.6479 18.4253 81.0518 18.0332 80.3712 17.761C79.6908 17.4549 78.9593 17.302 78.1769 17.302C77.3942 17.302 76.6622 17.4547 75.9816 17.761C75.335 18.0672 74.7566 18.4929 74.2462 19.0374C73.7357 19.5478 73.3269 20.1438 73.0206 20.8245C72.7485 21.505 72.6124 22.2027 72.6124 22.9172V37.9758H66.589V12.4524H72.6124V13.8821C73.3951 12.9633 74.2287 12.2993 75.1134 11.8909C75.9982 11.4825 77.0198 11.2786 78.1769 11.2786C79.9124 11.2786 81.478 11.6352 82.8732 12.3499C84.3025 13.0305 85.5448 13.9664 86.5997 15.1575C87.6886 13.9666 88.9815 13.0304 90.4786 12.3499C92.0099 11.6353 93.6436 11.2786 95.379 11.2786ZM191.672 17.5569C190.583 17.5569 189.477 17.7618 188.354 18.1702C187.265 18.5785 186.277 19.1737 185.393 19.9563C184.508 20.739 183.777 21.7095 183.198 22.8665C182.654 23.9894 182.381 25.2654 182.381 26.6946V37.9758H176.46V12.4524H182.381V15.8215C183.062 14.9708 183.828 14.2565 184.679 13.678C185.564 13.0995 186.465 12.6394 187.384 12.2991C188.303 11.9248 189.204 11.6696 190.089 11.5334C190.974 11.3633 191.774 11.2786 192.488 11.2786L191.672 17.5569ZM235.472 12.4524H241.444V18.3743H235.472V37.9758H229.55V18.3743H227.202V12.4524H229.55V2.24341H235.472V12.4524ZM252.829 37.9758H246.805V12.4524H252.829V37.9758ZM266.137 21.4368L275.478 12.4524H283.442L272.262 23.3254L283.442 37.9758H275.734L267.821 27.6135L266.188 29.1956V37.9758H260.215V2.24341H266.137V21.4368ZM208.212 17.1995C207.123 17.1995 206.086 17.4212 205.099 17.8635C204.146 18.2719 203.311 18.8334 202.597 19.5481C201.882 20.2626 201.304 21.1132 200.861 22.0999C200.453 23.0527 200.249 24.0743 200.249 25.1633C200.249 26.2521 200.453 27.2899 200.861 28.2766C201.304 29.2295 201.882 30.0639 202.597 30.7786C203.311 31.4932 204.146 32.0715 205.099 32.5139C206.085 32.9222 207.123 33.1262 208.212 33.1262C209.301 33.1262 210.323 32.939 211.276 32.5647C212.262 32.1563 213.113 31.5947 213.827 30.8801C214.542 30.1655 215.103 29.332 215.512 28.3792C215.954 27.3923 216.176 26.3203 216.176 25.1633C216.176 24.0743 215.954 23.0527 215.512 22.0999C215.103 21.1132 214.542 20.2626 213.827 19.5481C213.113 18.8336 212.262 18.2719 211.276 17.8635C210.323 17.4211 209.301 17.1995 208.212 17.1995ZM6.1261 31.8499H12.4562C14.0896 31.8498 15.6039 31.5779 16.9991 31.0334C18.4284 30.4549 19.6708 29.6726 20.7257 28.6858C21.8146 27.665 22.6649 26.4736 23.2775 25.1126C23.89 23.7173 24.1964 22.2021 24.1964 20.5686C24.1964 18.9692 23.89 17.4381 23.2775 15.9749C22.6649 14.4776 21.8146 13.1672 20.7257 12.0442C19.6708 10.9212 18.4284 10.0365 16.9991 9.3899C15.6039 8.70931 14.0896 8.36846 12.4562 8.36841H6.1261V31.8499ZM48.0421 16.4338C46.3067 16.4338 44.7923 16.9443 43.4991 17.9651C42.2059 18.952 41.3036 20.1608 40.7931 21.5901H55.2911C54.7807 20.1608 53.8783 18.952 52.5851 17.9651C51.292 16.9443 49.7776 16.4338 48.0421 16.4338ZM249.817 0.0480984C250.906 0.0480984 251.808 0.405705 252.523 1.12036C253.237 1.83498 253.595 2.73658 253.595 3.82544C253.595 4.84638 253.237 5.7143 252.523 6.42896C251.808 7.14362 250.906 7.50122 249.817 7.50122C248.796 7.50112 247.928 7.14334 247.214 6.42896C246.499 5.7143 246.142 4.84638 246.142 3.82544C246.142 2.73645 246.499 1.83502 247.214 1.12036C247.929 0.405818 248.796 0.0481993 249.817 0.0480984Z" fill="var(--fill-0, #222831)"/>
<g id="Group">
<path id="Vector" fill-rule="evenodd" clip-rule="evenodd" d="M123.334 20.6392L129.142 26.515L126.306 29.3843L120.498 23.5085L123.334 20.6392Z" fill="var(--fill-0, #00FF5D)"/>
<path id="Vector_2" fill-rule="evenodd" clip-rule="evenodd" d="M136.861 12.9336L139.697 15.8029L126.298 29.3587L123.462 26.4896L136.861 12.9336Z" fill="var(--fill-0, #00FF5D)"/>
</g>
</g>
<defs>
<clipPath id="clip0_0_14">
<rect width="283.441" height="39" fill="white"/>
</clipPath>
</defs>
</svg>
