<svg preserveAspectRatio="none" width="100%" height="100%" overflow="visible" style="display: block;" viewBox="0 0 21 21" fill="none" xmlns="http://www.w3.org/2000/svg">
<g id="phone">
<path id="Vector" d="M19.2499 14.8049V17.4299C19.2508 17.6736 19.2009 17.9148 19.1033 18.1381C19.0057 18.3614 18.8625 18.5618 18.6829 18.7265C18.5034 18.8913 18.2914 19.0167 18.0605 19.0948C17.8297 19.1729 17.5851 19.2018 17.3424 19.1799C14.6498 18.8873 12.0635 17.9673 9.79111 16.4937C7.67696 15.1502 5.88453 13.3578 4.54111 11.2437C3.06234 8.96097 2.14207 6.36203 1.85486 3.65741C1.83299 3.41545 1.86175 3.17158 1.93929 2.94134C2.01684 2.71109 2.14148 2.49952 2.30528 2.32008C2.46907 2.14065 2.66844 1.99728 2.89067 1.89912C3.11291 1.80096 3.35315 1.75014 3.59611 1.74991H6.22111C6.64575 1.74573 7.05742 1.89611 7.3794 2.173C7.70137 2.4499 7.91167 2.83443 7.97111 3.25491C8.0819 4.09497 8.28737 4.9198 8.58361 5.71366C8.70133 6.02685 8.72681 6.36721 8.65702 6.69443C8.58724 7.02165 8.42511 7.32201 8.18986 7.55991L7.07861 8.67116C8.32422 10.8618 10.138 12.6756 12.3286 13.9212L13.4399 12.8099C13.6778 12.5747 13.9781 12.4125 14.3053 12.3427C14.6326 12.273 14.9729 12.2984 15.2861 12.4162C16.08 12.7124 16.9048 12.9179 17.7449 13.0287C18.1699 13.0886 18.5581 13.3027 18.8356 13.6302C19.1131 13.9577 19.2605 14.3758 19.2499 14.8049Z" stroke="var(--stroke-0, #222831)" stroke-width="1.5" stroke-linecap="round" stroke-linejoin="round"/>
</g>
</svg>
