<svg preserveAspectRatio="none" width="100%" height="100%" overflow="visible" style="display: block;" viewBox="0 0 10.7997 10.8" fill="none" xmlns="http://www.w3.org/2000/svg">
<g id="Group">
<path id="Vector" d="M8.0998 0H2.69993C1.2151 0 0 1.2151 0 2.69993V8.10006C0 9.5845 1.2151 10.8 2.69993 10.8H8.0998C9.58463 10.8 10.7997 9.5845 10.7997 8.10006V2.69993C10.7997 1.2151 9.58463 0 8.0998 0ZM9.89971 8.10006C9.89971 9.09229 9.09258 9.89998 8.0998 9.89998H2.69993C1.70758 9.89998 0.900022 9.09229 0.900022 8.10006V2.69993C0.900022 1.70744 1.70758 0.900022 2.69993 0.900022H8.0998C9.09258 0.900022 9.89971 1.70744 9.89971 2.69993V8.10006Z" fill="var(--fill-0, white)"/>
</g>
</svg>
