<svg preserveAspectRatio="none" width="100%" height="100%" overflow="visible" style="display: block;" viewBox="0 0 8.64 8.64" fill="none" xmlns="http://www.w3.org/2000/svg">
<g id="_x31_0.Linkedin">
<path id="Vector" d="M8.64 8.64V5.4756C8.64 3.9204 8.3052 2.7324 6.4908 2.7324C5.616 2.7324 5.0328 3.2076 4.7952 3.6612H4.7736V2.8728H3.0564V8.64H4.8492V5.778C4.8492 5.022 4.9896 4.2984 5.9184 4.2984C6.8364 4.2984 6.8472 5.1516 6.8472 5.8212V8.6292H8.64V8.64Z" fill="var(--fill-0, white)"/>
<path id="Vector_2" d="M0.1404 2.8728H1.9332V8.64H0.1404V2.8728Z" fill="var(--fill-0, white)"/>
<path id="Vector_3" d="M1.0368 0C0.4644 0 0 0.4644 0 1.0368C0 1.6092 0.4644 2.0844 1.0368 2.0844C1.6092 2.0844 2.0736 1.6092 2.0736 1.0368C2.0736 0.4644 1.6092 0 1.0368 0Z" fill="var(--fill-0, white)"/>
</g>
</svg>
