<svg preserveAspectRatio="none" width="100%" height="100%" overflow="visible" style="display: block;" viewBox="0 0 94.4804 13" fill="none" xmlns="http://www.w3.org/2000/svg">
<g id="Logo/black" clip-path="url(#clip0_0_9)">
<path id="Subtract" d="M16.0136 3.42619C16.7282 3.42619 17.3693 3.55689 17.9364 3.81779C18.5036 4.07868 18.9857 4.43012 19.3827 4.87248C19.7798 5.30354 20.0861 5.80859 20.3017 6.38713C20.5285 6.96561 20.6478 7.56699 20.6591 8.19084H13.3593C13.3707 8.54229 13.4502 8.87104 13.5976 9.17716C13.745 9.4833 13.9376 9.75016 14.1757 9.97697C14.4139 10.2038 14.6921 10.3858 15.0097 10.5219C15.3272 10.6466 15.662 10.7084 16.0136 10.7084C16.6034 10.7084 17.1085 10.5672 17.5282 10.2836C17.9479 9.98873 18.2543 9.59742 18.4472 9.10978H20.6083C20.4155 9.75625 20.1603 10.3065 19.8427 10.7602C19.5252 11.2137 19.162 11.5821 18.7538 11.8656C18.3455 12.1492 17.9084 12.3541 17.4433 12.4789C16.9782 12.615 16.5014 12.683 16.0136 12.683C15.3672 12.683 14.7603 12.5637 14.1933 12.3256C13.6374 12.076 13.1491 11.7467 12.7294 11.3383C12.3098 10.9187 11.975 10.4311 11.7255 9.87541C11.4873 9.30822 11.3681 8.70071 11.3681 8.05412C11.3681 7.40763 11.4873 6.80617 11.7255 6.25041C11.975 5.6834 12.3098 5.19581 12.7294 4.78752C13.1491 4.3678 13.6374 4.03843 14.1933 3.80021C14.7603 3.55074 15.3672 3.42622 16.0136 3.42619ZM42.0028 3.42619C42.6494 3.42621 43.2508 3.55067 43.8066 3.80021C43.9835 3.87453 44.1519 3.9592 44.3134 4.05119L42.8271 5.54338C42.5664 5.44956 42.2923 5.39984 42.0028 5.39982C41.6398 5.39982 41.2937 5.47403 40.9648 5.6215C40.6472 5.75762 40.369 5.94482 40.1308 6.18302C39.8927 6.42119 39.7001 6.70475 39.5527 7.03361C39.4166 7.35114 39.3486 7.69124 39.3486 8.05412C39.3486 8.4171 39.4165 8.76325 39.5527 9.0922C39.7001 9.4098 39.8926 9.68798 40.1308 9.92619C40.369 10.1644 40.6472 10.3568 40.9648 10.5043C41.2937 10.6404 41.6398 10.7084 42.0028 10.7084C42.3658 10.7084 42.7058 10.6404 43.0234 10.5043C43.3522 10.3569 43.6358 10.1643 43.8739 9.92619C44.1122 9.68797 44.2993 9.40982 44.4355 9.0922C44.5829 8.76323 44.6571 8.41712 44.6571 8.05412C44.6571 7.69123 44.5829 7.35115 44.4355 7.03361C44.3426 6.8092 44.2243 6.60739 44.0839 6.42521L45.4862 5.01701C45.8035 5.37523 46.0615 5.78547 46.2568 6.25041C46.5063 6.80617 46.6307 7.40763 46.6308 8.05412C46.6308 8.70071 46.5063 9.30822 46.2568 9.87541C46.0185 10.4312 45.6891 10.9186 45.2694 11.3383C44.8611 11.7466 44.3737 12.0761 43.8066 12.3256C43.2508 12.5638 42.6494 12.683 42.0028 12.683C41.3563 12.683 40.7487 12.5638 40.1816 12.3256C39.6258 12.0761 39.1383 11.7466 38.7187 11.3383C38.299 10.9187 37.9643 10.4311 37.7148 9.87541C37.4765 9.30822 37.3573 8.70071 37.3573 8.05412C37.3574 7.40763 37.4766 6.80617 37.7148 6.25041C37.9643 5.68337 38.299 5.19581 38.7187 4.78752C39.1383 4.36786 39.6258 4.03842 40.1816 3.80021C40.7487 3.55065 41.3563 3.42619 42.0028 3.42619ZM52.8036 3.42619C53.2232 3.42619 53.6428 3.48275 54.0624 3.59611C54.4935 3.6982 54.8971 3.86863 55.2714 4.10685C55.6569 4.34504 56.0086 4.65158 56.3261 5.0258C56.6436 5.38876 56.9104 5.83122 57.1259 6.35295H54.8964C54.6468 6.01264 54.3405 5.76897 53.9775 5.6215C53.6145 5.47406 53.2233 5.39982 52.8036 5.39982C52.4406 5.39982 52.0945 5.47403 51.7655 5.6215C51.448 5.75762 51.1697 5.94487 50.9316 6.18302C50.6935 6.42117 50.5008 6.7048 50.3534 7.03361C50.2174 7.35112 50.1494 7.69127 50.1493 8.05412C50.1493 8.41707 50.2173 8.76327 50.3534 9.0922C50.5009 9.40976 50.6934 9.688 50.9316 9.92619C51.1697 10.1643 51.448 10.3569 51.7655 10.5043C52.0945 10.6404 52.4406 10.7084 52.8036 10.7084C53.2459 10.7084 53.6487 10.6298 54.0116 10.4711C54.3746 10.301 54.6695 10.0563 54.8964 9.73869H57.1083C56.8928 10.2491 56.6261 10.6915 56.3085 11.0658C56.0023 11.4401 55.6623 11.7466 55.288 11.9848C54.9137 12.223 54.5163 12.3987 54.0966 12.5121C53.6769 12.6255 53.246 12.683 52.8036 12.683C52.1572 12.683 51.5504 12.5637 50.9833 12.3256C50.4275 12.076 49.9392 11.7467 49.5194 11.3383C49.0999 10.9187 48.7651 10.4311 48.5155 9.87541C48.2773 9.30822 48.1581 8.70071 48.1581 8.05412C48.1582 7.40763 48.2774 6.80617 48.5155 6.25041C48.7651 5.68338 49.0999 5.19581 49.5194 4.78752C49.9392 4.3678 50.4275 4.03843 50.9833 3.80021C51.5504 3.55077 52.1572 3.42619 52.8036 3.42619ZM69.4042 3.42619C70.0507 3.42622 70.6522 3.55069 71.2079 3.80021C71.775 4.03842 72.2625 4.36784 72.6708 4.78752C73.0905 5.19585 73.4199 5.6833 73.6581 6.25041C73.9076 6.80617 74.0321 7.40763 74.0321 8.05412V12.3256H72.0585V11.849C71.2872 12.4048 70.4024 12.683 69.4042 12.683C68.701 12.683 68.0598 12.5637 67.4814 12.3256C66.9142 12.0874 66.4259 11.758 66.0175 11.3383C65.6206 10.9187 65.3088 10.431 65.0819 9.87541C64.8664 9.30822 64.7587 8.70071 64.7587 8.05412C64.7587 7.40763 64.8779 6.80617 65.1161 6.25041C65.3657 5.68336 65.7004 5.19581 66.12 4.78752C66.5397 4.36784 67.0272 4.03842 67.5829 3.80021C68.1501 3.55065 68.7576 3.42619 69.4042 3.42619ZM4.15129 0.414469C4.97931 0.414469 5.75114 0.578724 6.46574 0.907633C7.19163 1.23655 7.8213 1.67905 8.35441 2.23478C8.88757 2.79063 9.30789 3.44312 9.61418 4.19181C9.93176 4.92909 10.0897 5.7062 10.0898 6.52287C10.0898 7.33945 9.93167 8.10521 9.61418 8.81974C9.30789 9.52306 8.88757 10.1358 8.35441 10.6576C7.82126 11.1794 7.19173 11.5883 6.46574 11.8832C5.75114 12.1781 4.97929 12.3256 4.15129 12.3256H-8.13802e-05V0.414469H4.15129ZM31.7929 3.42619C32.326 3.42619 32.8249 3.5287 33.29 3.73283C33.7663 3.93699 34.1753 4.21425 34.5155 4.56584C34.8672 4.91745 35.1453 5.33166 35.3495 5.80802C35.5537 6.27312 35.6552 6.77291 35.6552 7.30607V12.3256H33.6474V7.30607C33.6474 7.05651 33.5962 6.8181 33.4941 6.59123C33.4033 6.36442 33.2735 6.16565 33.1034 5.99552C32.9333 5.8254 32.7345 5.68941 32.5077 5.58732C32.2809 5.48523 32.0425 5.434 31.7929 5.434C31.532 5.43401 31.2883 5.48525 31.0614 5.58732C30.8459 5.68942 30.6525 5.82537 30.4823 5.99552C30.3123 6.16563 30.1762 6.36445 30.0741 6.59123C29.9834 6.81804 29.9384 7.05659 29.9384 7.30607V12.3256H27.9306V7.30607C27.9306 7.04516 27.8794 6.80053 27.7773 6.57365C27.6865 6.34696 27.5557 6.14897 27.3857 5.97892C27.2155 5.80877 27.0168 5.67807 26.79 5.58732C26.5632 5.48531 26.3193 5.434 26.0585 5.434C25.7977 5.43402 25.5539 5.48525 25.3271 5.58732C25.1117 5.68933 24.919 5.83085 24.7489 6.01213C24.5788 6.18226 24.4419 6.38099 24.3398 6.60783C24.249 6.8347 24.204 7.06785 24.204 7.30607V12.3256H22.1962V3.81779H24.204V4.29435C24.4649 3.98807 24.7431 3.76642 25.038 3.63029C25.3328 3.49426 25.673 3.42621 26.0585 3.42619C26.637 3.42619 27.1589 3.54542 27.6239 3.78361C28.1003 4.01045 28.5145 4.32221 28.8661 4.71916C29.229 4.32223 29.6601 4.01047 30.1591 3.78361C30.6695 3.5454 31.2144 3.4262 31.7929 3.42619ZM63.8905 5.51896C63.5275 5.51896 63.1584 5.58694 62.7841 5.72306C62.4213 5.85916 62.0926 6.05798 61.7978 6.31877C61.5029 6.57959 61.2591 6.90297 61.0663 7.28849C60.8848 7.66283 60.7939 8.08843 60.7939 8.56486V12.3256H58.8202V3.81779H60.7939V4.94084C61.0207 4.65724 61.2759 4.41884 61.5595 4.22599C61.8544 4.0332 62.1546 3.87946 62.4609 3.76603C62.7671 3.64125 63.0683 3.55652 63.3632 3.51115C63.658 3.45446 63.9249 3.42619 64.163 3.42619L63.8905 5.51896ZM78.4902 3.81779H80.4814V5.79142H78.4902V12.3256H76.5165V5.79142H75.7333V3.81779H76.5165V0.414469H78.4902V3.81779ZM84.2763 12.3256H82.2685V3.81779H84.2763V12.3256ZM88.7118 6.81193L91.8261 3.81779H94.4804L90.7538 7.44181L94.4804 12.3256H91.9111L89.2734 8.8715L88.7294 9.39884V12.3256H86.7382V0.414469H88.7118V6.81193ZM69.4042 5.39982C69.0412 5.39982 68.6951 5.47403 68.3661 5.6215C68.0485 5.75763 67.7704 5.9448 67.5321 6.18302C67.294 6.4212 67.1014 6.70474 66.954 7.03361C66.8179 7.35115 66.75 7.69123 66.7499 8.05412C66.7499 8.41711 66.8179 8.76324 66.954 9.0922C67.1015 9.40983 67.2939 9.68797 67.5321 9.92619C67.7704 10.1644 68.0485 10.3568 68.3661 10.5043C68.6951 10.6404 69.0412 10.7084 69.4042 10.7084C69.767 10.7084 70.1072 10.6466 70.4247 10.5219C70.7536 10.3858 71.0371 10.1985 71.2753 9.96037C71.5135 9.72217 71.7007 9.44397 71.8368 9.12638C71.9843 8.79741 72.0585 8.43981 72.0585 8.05412C72.0585 7.69123 71.9843 7.35115 71.8368 7.03361C71.7007 6.70464 71.5135 6.42124 71.2753 6.18302C71.0371 5.94481 70.7537 5.75763 70.4247 5.6215C70.1072 5.47407 69.7671 5.39986 69.4042 5.39982ZM2.04191 10.2836H4.15129C4.69572 10.2836 5.20089 10.1926 5.66593 10.0111C6.14223 9.81836 6.55653 9.55776 6.90812 9.22892C7.27106 8.88867 7.55453 8.49117 7.75871 8.03752C7.9629 7.57242 8.06535 7.06737 8.06535 6.52287C8.06533 5.98976 7.96288 5.47936 7.75871 4.99162C7.55452 4.49254 7.2711 4.05539 6.90812 3.68107C6.55652 3.30685 6.14227 3.01179 5.66593 2.79631C5.20092 2.56952 4.69568 2.45646 4.15129 2.45646H2.04191V10.2836ZM16.0136 5.14494C15.4352 5.14499 14.9309 5.31545 14.4999 5.65568C14.0689 5.98465 13.7677 6.38725 13.5976 6.86369H18.4296C18.2595 6.38734 17.9592 5.98462 17.5282 5.65568C17.0972 5.31537 16.5921 5.14494 16.0136 5.14494ZM83.2724 -0.316976C83.6353 -0.316922 83.9356 -0.197719 84.1737 0.040446C84.4119 0.278641 84.5312 0.578882 84.5312 0.941813C84.5312 1.28213 84.412 1.57176 84.1737 1.80998C83.9356 2.04796 83.6351 2.16734 83.2724 2.1674C82.9321 2.1674 82.6424 2.04813 82.4042 1.80998C82.166 1.57176 82.0468 1.28213 82.0468 0.941813C82.0468 0.578966 82.1662 0.278615 82.4042 0.040446C82.6424 -0.197774 82.9321 -0.316976 83.2724 -0.316976Z" fill="var(--fill-0, #222831)"/>
<g id="Group">
<path id="Vector" fill-rule="evenodd" clip-rule="evenodd" d="M41.1112 6.87976L43.0471 8.83837L42.1018 9.7948L40.1659 7.83618L41.1112 6.87976Z" fill="var(--fill-0, #00FF5D)"/>
<path id="Vector_2" fill-rule="evenodd" clip-rule="evenodd" d="M45.6201 4.31124L46.5654 5.26766L42.0993 9.78624L41.154 8.8299L45.6201 4.31124Z" fill="var(--fill-0, #00FF5D)"/>
</g>
</g>
<defs>
<clipPath id="clip0_0_9">
<rect width="94.4804" height="13" fill="white"/>
</clipPath>
</defs>
</svg>
