<svg preserveAspectRatio="none" width="100%" height="100%" overflow="visible" style="display: block;" viewBox="0 0 348.813 348.173" fill="none" xmlns="http://www.w3.org/2000/svg">
<g id="Group 1050">
<path id="Union" d="M174.727 0C199.047 0 221.662 4.69308 242.569 14.0801C246.161 15.5888 249.669 17.1943 253.092 18.8965L195.653 76.5654C188.916 75.0171 181.94 74.2432 174.727 74.2432C161.073 74.2432 148.058 77.0166 135.685 82.5635C123.738 87.6836 113.284 94.7235 104.324 103.684C95.3639 112.644 88.1104 123.311 82.5635 135.685C77.4434 147.632 74.8828 160.433 74.8828 174.087C74.8829 187.741 77.4434 200.754 82.5635 213.128C88.1104 225.075 95.3639 235.529 104.324 244.489C113.284 253.449 123.738 260.703 135.685 266.25C148.058 271.37 161.073 273.931 174.727 273.931C188.38 273.931 201.181 271.37 213.128 266.25C225.502 260.703 236.169 253.449 245.129 244.489C254.089 235.529 261.13 225.075 266.25 213.128C271.797 200.754 274.57 187.741 274.57 174.087C274.57 160.794 271.941 148.309 266.684 136.634L321.677 81.0078C326.628 88.8958 330.979 97.3081 334.732 106.244C344.119 127.152 348.813 149.766 348.813 174.087C348.813 198.408 344.119 221.235 334.732 242.569C325.772 263.477 313.398 281.824 297.611 297.611C282.251 312.972 263.903 325.345 242.569 334.732C221.662 343.693 199.047 348.173 174.727 348.173C150.406 348.173 127.578 343.693 106.244 334.732C85.3368 325.345 66.9893 312.972 51.2021 297.611C35.415 281.824 22.8275 263.477 13.4404 242.569C4.48008 221.235 5.58334e-05 198.408 0 174.087C0 149.766 4.48008 127.152 13.4404 106.244C22.8275 84.91 35.415 66.5627 51.2021 51.2021C66.9893 35.4149 85.3367 23.0404 106.244 14.0801C127.578 4.69317 150.406 1.82388e-06 174.727 0ZM346.344 56.0186L178.358 225.979L142.801 190.007L105.632 152.633L141.189 116.658L178.451 154.356L310.787 20.0439L346.344 56.0186Z" fill="var(--fill-0, white)" fill-opacity="0.2"/>
</g>
</svg>
