<svg preserveAspectRatio="none" width="100%" height="100%" overflow="visible" style="display: block;" viewBox="0 0 11.0328 11.0331" fill="none" xmlns="http://www.w3.org/2000/svg">
<g id="Group">
<path id="Vector" d="M8.27463 0H2.75821C1.24133 0 0 1.24133 0 2.75821V8.2749C0 9.79138 1.24133 11.0331 2.75821 11.0331H8.27463C9.79151 11.0331 11.0328 9.79138 11.0328 8.2749V2.75821C11.0328 1.24133 9.79151 0 8.27463 0ZM10.1134 8.2749C10.1134 9.28854 9.28884 10.1137 8.27463 10.1137H2.75821C1.74443 10.1137 0.919448 9.28854 0.919448 8.2749V2.75821C0.919448 1.7443 1.74443 0.919448 2.75821 0.919448H8.27463C9.28884 0.919448 10.1134 1.7443 10.1134 2.75821V8.2749Z" fill="var(--fill-0, #6FB93E)"/>
</g>
</svg>
