<svg preserveAspectRatio="none" width="100%" height="100%" overflow="visible" style="display: block;" viewBox="0 0 8.82658 8.8265" fill="none" xmlns="http://www.w3.org/2000/svg">
<g id="_x31_0.Linkedin">
<path id="Vector" d="M8.82658 8.8265V5.5938C8.82658 4.00503 8.48456 2.79139 6.63099 2.79139C5.73731 2.79139 5.14153 3.27685 4.8988 3.74024H4.87673V2.93482H3.12247V8.8265H4.95396V5.90273C4.95396 5.13041 5.09739 4.39119 6.04624 4.39119C6.98405 4.39119 6.99509 5.26281 6.99509 5.94686V8.81547H8.82658V8.8265Z" fill="var(--fill-0, #6FB93E)"/>
<path id="Vector_2" d="M0.143438 2.93473H1.97493V8.82641H0.143438V2.93473Z" fill="var(--fill-0, #6FB93E)"/>
<path id="Vector_3" d="M1.05918 0C0.474424 0 0 0.474424 0 1.05918C0 1.64393 0.474424 2.12939 1.05918 2.12939C1.64393 2.12939 2.11836 1.64393 2.11836 1.05918C2.11836 0.474424 1.64393 0 1.05918 0Z" fill="var(--fill-0, #6FB93E)"/>
</g>
</svg>
