<svg preserveAspectRatio="none" width="100%" height="100%" overflow="visible" style="display: block;" viewBox="0 0 368.738 50.7363" fill="none" xmlns="http://www.w3.org/2000/svg">
<path id="Subtract" d="M62.499 14.6104C65.2882 14.6104 67.7903 15.1194 70.0039 16.1377C72.2173 17.1559 74.099 18.5284 75.6484 20.2549C77.1979 21.9372 78.3932 23.9072 79.2344 26.165C80.1198 28.4228 80.5846 30.7692 80.6289 33.2041H52.1396C52.1839 34.5764 52.4939 35.8604 53.0693 37.0557C53.6449 38.251 54.3974 39.2923 55.3271 40.1777C56.2568 41.0631 57.3415 41.7715 58.5811 42.3027C59.8206 42.7897 61.1267 43.0332 62.499 43.0332C64.801 43.0332 66.7712 42.4797 68.4092 41.373C70.0473 40.222 71.2435 38.6938 71.9961 36.79H80.4297C79.6771 39.3136 78.681 41.4615 77.4414 43.2324C76.2018 45.0032 74.7851 46.442 73.1914 47.5488C71.5976 48.6556 69.8923 49.4525 68.0771 49.9395C66.2621 50.4706 64.4026 50.7363 62.499 50.7363C59.9756 50.7363 57.6071 50.2715 55.3936 49.3418C53.2243 48.3678 51.3206 47.0839 49.6826 45.4902C48.0447 43.8523 46.7386 41.9484 45.7646 39.7793C44.8349 37.5657 44.3691 35.1964 44.3691 32.6729C44.3692 30.1494 44.835 27.8031 45.7646 25.6338C46.7386 23.4202 48.0446 21.5166 49.6826 19.9229C51.3207 18.2848 53.2242 17.001 55.3936 16.0713C57.6071 15.0973 59.9756 14.6104 62.499 14.6104ZM163.929 14.6104C166.452 14.6104 168.798 15.0973 170.968 16.0713C171.39 16.2485 171.801 16.4377 172.2 16.6406L166.268 22.5977C165.517 22.4101 164.737 22.3135 163.929 22.3135C162.512 22.3135 161.162 22.6013 159.878 23.1768C158.638 23.708 157.553 24.4384 156.623 25.3682C155.693 26.2978 154.941 27.4047 154.365 28.6885C153.834 29.928 153.568 31.2562 153.568 32.6729C153.568 34.0894 153.834 35.4399 154.365 36.7236C154.941 37.9632 155.693 39.0488 156.623 39.9785C157.553 40.9082 158.638 41.6608 159.878 42.2363C161.162 42.7675 162.512 43.0332 163.929 43.0332C165.345 43.0332 166.674 42.7676 167.913 42.2363C169.197 41.6608 170.304 40.9081 171.233 39.9785C172.163 39.0488 172.894 37.9633 173.425 36.7236C174 35.4398 174.288 34.0895 174.288 32.6729C174.288 31.2562 174 29.928 173.425 28.6885C172.951 27.5446 172.319 26.5424 171.529 25.6797L176.972 20.2148C178.471 21.7476 179.657 23.5539 180.53 25.6338C181.504 27.8031 181.992 30.1494 181.992 32.6729C181.992 35.1964 181.504 37.5657 180.53 39.7793C179.601 41.9484 178.317 43.8523 176.679 45.4902C175.085 47.0839 173.181 48.3678 170.968 49.3418C168.798 50.2715 166.452 50.7363 163.929 50.7363C161.405 50.7363 159.037 50.2714 156.823 49.3418C154.654 48.3678 152.749 47.084 151.111 45.4902C149.473 43.8522 148.167 41.9485 147.193 39.7793C146.264 37.5657 145.799 35.1964 145.799 32.6729C145.799 30.1494 146.264 27.8031 147.193 25.6338C148.167 23.4203 149.473 21.5166 151.111 19.9229C152.749 18.2848 154.654 17.001 156.823 16.0713C159.037 15.0974 161.405 14.6104 163.929 14.6104ZM206.083 14.6104C207.721 14.6104 209.359 14.8317 210.997 15.2744C212.679 15.6729 214.251 16.3369 215.712 17.2666C217.217 18.1963 218.59 19.3916 219.829 20.8525C221.069 22.2692 222.109 23.9957 222.95 26.0322H214.251C213.277 24.7041 212.082 23.7523 210.665 23.1768C209.248 22.6013 207.721 22.3135 206.083 22.3135C204.666 22.3135 203.315 22.6012 202.031 23.1768C200.792 23.708 199.707 24.4385 198.777 25.3682C197.848 26.2979 197.095 27.4047 196.52 28.6885C195.988 29.928 195.723 31.2562 195.723 32.6729C195.723 34.0894 195.988 35.4399 196.52 36.7236C197.095 37.9633 197.848 39.0488 198.777 39.9785C199.707 40.9082 200.792 41.6608 202.031 42.2363C203.315 42.7676 204.666 43.0332 206.083 43.0332C207.809 43.0332 209.381 42.7233 210.798 42.1035C212.214 41.4395 213.366 40.4875 214.251 39.248H222.884C222.043 41.2401 221.002 42.9668 219.763 44.4277C218.567 45.8886 217.239 47.084 215.778 48.0137C214.317 48.9434 212.768 49.6295 211.13 50.0723C209.492 50.515 207.81 50.7363 206.083 50.7363C203.559 50.7363 201.19 50.2715 198.977 49.3418C196.807 48.3678 194.904 47.084 193.266 45.4902C191.628 43.8522 190.322 41.9485 189.348 39.7793C188.418 37.5657 187.953 35.1964 187.953 32.6729C187.953 30.1494 188.418 27.8031 189.348 25.6338C190.322 23.4202 191.628 21.5166 193.266 19.9229C194.904 18.2849 196.807 17.001 198.977 16.0713C201.19 15.0973 203.559 14.6104 206.083 14.6104ZM270.87 14.6104C273.394 14.6104 275.74 15.0974 277.909 16.0713C279.985 16.943 281.788 18.1258 283.318 19.6201L283.924 20.2256C285.418 21.756 286.601 23.5586 287.473 25.6338C288.447 27.803 288.934 30.1494 288.934 32.6729V49.3418H281.23V47.4824C278.22 49.6518 274.766 50.7363 270.87 50.7363C268.125 50.7363 265.624 50.2715 263.366 49.3418C261.153 48.4121 259.249 47.1282 257.655 45.4902C256.106 43.8522 254.887 41.9486 254.002 39.7793C253.161 37.5657 252.74 35.1964 252.74 32.6729C252.74 30.1495 253.205 27.803 254.135 25.6338C255.109 23.4202 256.416 21.5167 258.054 19.9229C259.692 18.2848 261.595 17.001 263.765 16.0713C265.978 15.0973 268.347 14.6104 270.87 14.6104ZM16.2041 2.85547C19.4359 2.8555 22.4463 3.49743 25.2354 4.78125C28.0686 6.06508 30.5257 7.79177 32.6064 9.96094C34.6873 12.1303 36.3261 14.6766 37.5215 17.5986C38.761 20.4762 39.3809 23.5088 39.3809 26.6963C39.3809 29.8837 38.761 32.8721 37.5215 35.6611C36.3261 38.406 34.6873 40.7974 32.6064 42.834C30.5257 44.8704 28.0686 46.4642 25.2354 47.6152C22.4463 48.7663 19.4359 49.3418 16.2041 49.3418H0V2.85547H16.2041ZM124.082 14.6104C126.163 14.6104 128.111 15.0088 129.926 15.8057C131.785 16.6026 133.38 17.6871 134.708 19.0596C136.08 20.4319 137.165 22.0479 137.962 23.9072C138.759 25.7223 139.157 27.6703 139.157 29.751V49.3418H131.32V29.751C131.32 28.777 131.121 27.8473 130.723 26.9619C130.368 26.0765 129.859 25.3017 129.195 24.6377C128.531 23.9737 127.756 23.4424 126.871 23.0439C125.986 22.6455 125.056 22.4463 124.082 22.4463C123.064 22.4463 122.112 22.6455 121.227 23.0439C120.385 23.4424 119.633 23.9736 118.969 24.6377C118.305 25.3018 117.773 26.0765 117.375 26.9619C117.021 27.8473 116.844 28.777 116.844 29.751V49.3418H109.007V29.751C109.007 28.7328 108.808 27.7809 108.409 26.8955C108.055 26.0101 107.546 25.2353 106.882 24.5713C106.218 23.9073 105.443 23.3981 104.558 23.0439C103.672 22.6455 102.72 22.4463 101.702 22.4463C100.684 22.4463 99.7321 22.6455 98.8467 23.0439C98.0055 23.4424 97.2529 23.9958 96.5889 24.7041C95.9248 25.3682 95.3936 26.1429 94.9951 27.0283C94.641 27.9137 94.4639 28.8213 94.4639 29.751V49.3418H86.6279V16.1377H94.4639V17.9971C95.4821 16.8018 96.5667 15.9385 97.7178 15.4072C98.8688 14.876 100.197 14.6104 101.702 14.6104C103.96 14.6104 105.996 15.0752 107.812 16.0049C109.671 16.8903 111.288 18.1077 112.66 19.6572C114.077 18.1077 115.759 16.8903 117.707 16.0049C119.699 15.0752 121.824 14.6104 124.082 14.6104ZM249.353 22.7783C247.936 22.7783 246.496 23.0439 245.035 23.5752C243.619 24.1065 242.335 24.8812 241.184 25.8994C240.033 26.9176 239.081 28.1794 238.328 29.6846C237.62 31.1455 237.266 32.8057 237.266 34.665V49.3418H229.562V16.1377H237.266V20.5205C238.151 19.4138 239.147 18.484 240.254 17.7314C241.405 16.9789 242.578 16.3812 243.773 15.9385C244.969 15.4515 246.143 15.1195 247.294 14.9424C248.445 14.7211 249.485 14.6104 250.415 14.6104L249.353 22.7783ZM306.333 16.1377H314.103V23.8408H306.333V49.3418H298.629V23.8408H295.574V16.1377H298.629V2.85547H306.333V16.1377ZM328.913 49.3418H321.077V16.1377H328.913V49.3418ZM346.226 27.8252L358.379 16.1377H368.738L354.194 30.2822L368.738 49.3418H358.711L348.417 35.8604L346.292 37.9199V49.3418H338.522V2.85547H346.226V27.8252ZM270.87 22.3135C269.453 22.3135 268.103 22.6012 266.819 23.1768C265.58 23.708 264.495 24.4385 263.565 25.3682C262.636 26.2978 261.883 27.4047 261.308 28.6885C260.776 29.928 260.511 31.2562 260.511 32.6729C260.511 34.0895 260.776 35.4398 261.308 36.7236C261.883 37.9633 262.636 39.0488 263.565 39.9785C264.495 40.9081 265.58 41.6608 266.819 42.2363C268.103 42.7675 269.453 43.0332 270.87 43.0332C272.287 43.0332 273.615 42.7896 274.854 42.3027C276.138 41.7715 277.245 41.0409 278.175 40.1113C279.105 39.1816 279.836 38.0961 280.367 36.8564C280.943 35.5727 281.23 34.1779 281.23 32.6729C281.23 31.2563 280.943 29.928 280.367 28.6885C279.836 27.4046 279.105 26.2979 278.175 25.3682C277.245 24.4385 276.138 23.708 274.854 23.1768C273.615 22.6013 272.287 22.3135 270.87 22.3135ZM7.96875 41.373H16.2041C18.329 41.373 20.2992 41.0188 22.1143 40.3105C23.9737 39.5579 25.5895 38.5388 26.9619 37.2549C28.3786 35.9267 29.4853 34.3773 30.2822 32.6064C31.0791 30.7913 31.4775 28.8213 31.4775 26.6963C31.4775 24.6155 31.0791 22.6234 30.2822 20.7197C29.4853 18.7718 28.3786 17.0674 26.9619 15.6064C25.5895 14.1454 23.9737 12.9935 22.1143 12.1523C20.2992 11.267 18.329 10.8242 16.2041 10.8242H7.96875V41.373ZM62.499 21.3174C60.2412 21.3174 58.2712 21.9814 56.5889 23.3096C54.9066 24.5934 53.7334 26.165 53.0693 28.0244H71.9297C71.2656 26.165 70.0915 24.5935 68.4092 23.3096C66.7269 21.9815 64.7568 21.3174 62.499 21.3174ZM324.995 0C326.412 5.39295e-06 327.585 0.464852 328.515 1.39453C329.444 2.32423 329.909 3.4974 329.909 4.91406C329.909 6.2422 329.444 7.37107 328.515 8.30078C327.585 9.2305 326.412 9.69531 324.995 9.69531C323.667 9.69531 322.538 9.23051 321.608 8.30078C320.679 7.37107 320.214 6.24221 320.214 4.91406C320.214 3.4974 320.679 2.32423 321.608 1.39453C322.538 0.464861 323.667 0 324.995 0Z" fill="var(--fill-0, #222831)"/>
</svg>
